<?xml version="1.0" encoding="utf-8"?>
<!-- Generator: Adobe Illustrator 15.0.0, SVG Export Plug-In  -->
<!DOCTYPE svg PUBLIC "-//W3C//DTD SVG 1.1//EN" "http://www.w3.org/Graphics/SVG/1.1/DTD/svg11.dtd" [
	<!ENTITY ns_flows "http://ns.adobe.com/Flows/1.0/">
]>
<svg version="1.1"
	 xmlns="http://www.w3.org/2000/svg" xmlns:xlink="http://www.w3.org/1999/xlink" xmlns:a="http://ns.adobe.com/AdobeSVGViewerExtensions/3.0/"
	 x="0px" y="0px" width="293px" height="98px" viewBox="128.333 223.499 948 318" enable-background="new 128.333 223.499 948 318"
	 xml:space="preserve">
<defs>
</defs>
<g>
	<defs>
		<rect id="SVGID_1_" width="1207.559" height="858.898"/>
	</defs>
	<clipPath id="SVGID_2_">
		<use xlink:href="#SVGID_1_"  overflow="visible"/>
	</clipPath>
	<path clip-path="url(#SVGID_2_)" fill="#676670" d="M986.493,473.989c0.684-1.496,1.599-2.77,2.747-3.821
		c1.148-1.051,2.477-1.863,3.983-2.438c1.506-0.575,3.083-0.862,4.73-0.862c1.648,0,3.224,0.287,4.731,0.862
		c1.505,0.574,2.832,1.387,3.981,2.438c1.149,1.052,2.064,2.325,2.747,3.821c0.683,1.495,1.024,3.163,1.024,5.006
		c0,1.863-0.342,3.544-1.024,5.04c-0.683,1.495-1.598,2.772-2.747,3.835c-1.149,1.062-2.477,1.875-3.981,2.438
		c-1.508,0.563-3.083,0.845-4.731,0.845c-1.647,0-3.225-0.281-4.73-0.845c-1.507-0.563-2.835-1.377-3.983-2.438
		c-1.148-1.063-2.063-2.34-2.747-3.835c-0.682-1.496-1.023-3.177-1.023-5.04C985.47,477.152,985.812,475.484,986.493,473.989
		 M989.505,482.83c0.476,1.17,1.126,2.184,1.949,3.039c0.823,0.854,1.794,1.521,2.909,1.998c1.115,0.478,2.313,0.715,3.591,0.715
		c1.256,0,2.442-0.237,3.559-0.715c1.114-0.477,2.085-1.144,2.907-1.998c0.824-0.855,1.479-1.869,1.967-3.039
		s0.731-2.449,0.731-3.835c0-1.387-0.244-2.66-0.731-3.819s-1.143-2.16-1.967-3.006c-0.822-0.845-1.793-1.506-2.907-1.981
		c-1.116-0.479-2.303-0.716-3.559-0.716c-1.278,0-2.476,0.237-3.591,0.716c-1.115,0.476-2.086,1.137-2.909,1.981
		c-0.823,0.846-1.474,1.847-1.949,3.006c-0.478,1.159-0.715,2.433-0.715,3.819C988.79,480.38,989.027,481.66,989.505,482.83
		 M998.238,472.174c1.713,0,3.029,0.304,3.949,0.909c0.921,0.606,1.382,1.646,1.382,3.119c0,0.628-0.092,1.164-0.275,1.607
		c-0.185,0.443-0.438,0.807-0.763,1.089c-0.324,0.281-0.702,0.498-1.135,0.649c-0.433,0.152-0.897,0.25-1.395,0.293l3.641,5.948
		h-2.829l-3.317-5.818h-1.69v5.818h-2.702v-13.615H998.238z M998.206,477.855c0.779,0,1.418-0.108,1.915-0.323
		c0.498-0.218,0.746-0.735,0.746-1.557c0-0.366-0.087-0.658-0.26-0.875c-0.172-0.216-0.394-0.382-0.664-0.502
		c-0.271-0.118-0.574-0.199-0.909-0.243c-0.336-0.043-0.654-0.064-0.957-0.064h-2.271v3.564H998.206z"/>
	<polygon clip-path="url(#SVGID_2_)" fill="#676670" points="434.182,328.609 454.498,328.609 454.498,408.035 505.295,408.035 
		505.295,425.088 434.181,425.088 	"/>
	<path clip-path="url(#SVGID_2_)" fill="#676670" d="M580.936,403.851c-2.814,10.127-12.32,22.907-34.968,22.907
		c-21.987,0-35.832-14.572-35.832-37.303c0-22.954,13.448-37.572,35.746-37.572c22.425,0,37.447,14.706,35.65,41.481h-52.12
		c0.263,11.838,6.609,19.999,16.558,19.999c10.348,0,14.316-6.411,15.692-11.078L580.936,403.851z M545.881,365.039
		c-10.037,0-15.547,7.302-16.249,16.127h32.624C561.554,372.34,556.044,365.039,545.881,365.039L545.881,365.039z"/>
	<path clip-path="url(#SVGID_2_)" fill="#676670" d="M659.16,403.851c-2.814,10.127-12.319,22.907-34.968,22.907
		c-21.987,0-35.833-14.572-35.833-37.303c0-22.954,13.448-37.572,35.747-37.572c22.425,0,37.447,14.706,35.649,41.481h-52.12
		c0.264,11.838,6.609,19.999,16.559,19.999c10.349,0,14.316-6.411,15.691-11.078L659.16,403.851z M624.106,365.039
		c-10.037,0-15.548,7.302-16.249,16.127h32.623c-0.701-8.825-6.211-16.127-16.376-16.127H624.106z"/>
	<path clip-path="url(#SVGID_2_)" fill="#676670" d="M719.177,361.896h0.541v-34.639h18.903v97.83h-18.086v-9.338h-0.54
		c-4.307,7.532-12.556,11.008-21.93,11.008c-18.202,0-31.479-14.484-31.479-37.39c0-22.954,13.276-37.484,31.147-37.484
		C707.786,351.883,715.156,355.753,719.177,361.896 M720.759,389.367c0-15.081-6.878-22.996-17.408-22.996
		c-10.664,0-17.496,7.915-17.496,22.996c0,15.034,6.832,22.949,17.496,22.949C713.881,412.315,720.759,404.4,720.759,389.367"/>
	<path clip-path="url(#SVGID_2_)" fill="#676670" d="M793.948,375.188c-1.505-7.047-7.2-10.728-14.101-10.728
		c-6.865,0-11.691,2.983-11.691,8.464c0,5.17,5.217,6.608,12.546,7.864l7.313,1.129c12.818,2.161,25.248,5.992,25.248,21.975
		c0,15.632-14.201,22.865-32.835,22.865c-18.719,0-31.591-8.563-34.022-22.485l17.639-2.512c1.728,8.518,7.747,12.461,16.606,12.461
		c7.999,0,13.344-3.57,13.344-9.545c0-5.066-5.359-7.093-13.438-8.436l-7.826-1.264c-11.462-1.844-23.559-5.913-23.559-21.252
		c0-13.636,13.855-21.841,30.618-21.841c16.674,0,29.333,8.453,31.558,20.888L793.948,375.188z"/>
	<path clip-path="url(#SVGID_2_)" fill="#676670" d="M916.023,392.123c-3.426,17.957-18.507,35.127-44.061,35.127
		c-27.556,0-46.917-18.799-46.917-50.489c0-31.514,19.361-50.314,46.917-50.314c23.524,0,38.417,14.887,42.732,29.409l-20.053,3.197
		c-3.125-8.936-10.871-16.195-22.68-16.195c-15.041,0-26.282,10.969-26.282,33.903c0,23.109,11.241,34.08,26.282,34.08
		c13.561,0,21.145-9.362,23.649-21.015L916.023,392.123z"/>
	<path clip-path="url(#SVGID_2_)" fill="#676670" d="M943.632,343.485H924.73v-16.228h18.901V343.485z M943.632,425.088H924.73
		v-71.535h18.901V425.088z"/>
	<path clip-path="url(#SVGID_2_)" fill="#676670" d="M988.931,410.393c1.913,0,4.301,0,6.042-0.088v14.783
		c-1.819,0.182-7.755,0.27-12.409,0.27c-14.564,0-20.89-3.162-20.89-17.291v-41.789h-11.376v-12.725h11.376v-19.946h18.903v19.946
		h14.92v12.725h-14.92v37.054c0,6.384,2.471,7.06,8.352,7.06L988.931,410.393z"/>
	<path clip-path="url(#SVGID_2_)" fill="#676670" d="M1048.42,425.088c-8.504,23.487-17.354,26.532-29.64,26.532
		c-4.679,0-8.712-0.182-11.317-0.5v-15.577c1.842,0.183,4.232,0.54,8.381,0.54c6.529,0,9.098-2.474,11.92-9.374l0.892-2.233
		l-28.646-70.923h20.507l17.432,48.977h0.539l15.787-48.977h20.23L1048.42,425.088z"/>
	<path clip-path="url(#SVGID_2_)" fill="#9AC31E" d="M462.429,446.917c22.021,0,37.081,11.853,37.081,37.129
		s-15.06,37.129-37.081,37.129h-29.46v-74.258H462.429z M460.132,508.801c14.813,0,23.496-7.27,23.496-24.755
		c0-17.486-8.683-24.755-23.496-24.755H448.57V508.8L460.132,508.801z"/>
	<path clip-path="url(#SVGID_2_)" fill="#9AC31E" d="M561.96,504.829c-2.167,7.793-9.481,17.63-26.914,17.63
		c-16.923,0-27.579-11.216-27.579-28.711c0-17.667,10.35-28.918,27.513-28.918c17.26,0,28.822,11.318,27.439,31.927h-40.116
		c0.203,9.112,5.087,15.393,12.744,15.393c7.965,0,11.019-4.935,12.079-8.526L561.96,504.829z M534.98,474.956
		c-7.726,0-11.967,5.62-12.507,12.413h25.11C547.043,480.576,542.803,474.956,534.98,474.956L534.98,474.956z"/>
	<path clip-path="url(#SVGID_2_)" fill="#9AC31E" d="M586.191,473.437c3.751-5.331,9.522-8.607,17.385-8.607
		c10.54,0,19.375,6.117,19.375,20.089v36.256h-14.548v-32.519c0-8.868-3.679-12.071-10.309-12.071
		c-6.058,0-11.69,4.802-11.69,14.612v29.978h-14.549v-55.059h13.919v7.321H586.191z"/>
	<path clip-path="url(#SVGID_2_)" fill="#9AC31E" d="M659.138,509.864c1.473,0,3.312,0,4.651-0.067v11.378
		c-1.401,0.141-5.97,0.208-9.551,0.208c-11.211,0-16.078-2.434-16.078-13.309V475.91h-8.756v-9.794h8.756v-15.353h14.548v15.353
		h11.484v9.794h-11.484v28.52C652.708,509.342,654.61,509.863,659.138,509.864L659.138,509.864z"/>
	<path clip-path="url(#SVGID_2_)" fill="#9AC31E" d="M708.602,521.174c-0.942-1.082-1.592-3.896-1.592-7.646
		c-3.2,5.922-10.758,8.931-18.188,8.931c-9.661,0-18.348-6.096-18.348-16.323c0-11.82,8.377-16.26,22.852-17.938
		c10.839-1.296,13.617-2.91,13.617-6.197c0-4.125-3.011-6.758-9.611-6.758c-5.066,0-9.555,2.661-11.274,8.163l-13.466-2.03
		c2.428-10.398,12.093-16.546,25.12-16.546c16.603,0,23.78,7.336,23.78,17.806v27.48c0,5.734,0.104,8.818,1.456,11.058H708.602z
		 M706.943,494.051c-1.769,1.47-6.643,2.223-11.943,2.987c-5.318,0.8-9.695,3.321-9.695,8.402c0,4.468,3.097,6.989,7.975,6.989
		c5.86,0,13.663-3.544,13.663-12.669L706.943,494.051z"/>
	<rect x="733.029" y="445.875" clip-path="url(#SVGID_2_)" fill="#9AC31E" width="14.549" height="75.299"/>
	<path clip-path="url(#SVGID_2_)" fill="#9AC31E" d="M796.65,500.874l14.763,1.699c-2.299,9.16-9.535,19.887-26.821,19.887
		c-17.021,0-27.537-11.148-27.537-28.778c0-17.667,10.516-28.851,27.537-28.851c17.224,0,23.945,10.772,25.97,17.389l-14.149,3.145
		c-1.218-3.956-4.185-9.602-11.82-9.602c-7.725,0-12.707,6.091-12.707,17.92c0,11.827,4.982,17.881,12.707,17.881
		C792.465,511.563,795.47,505.753,796.65,500.874"/>
	<path clip-path="url(#SVGID_2_)" fill="#9AC31E" d="M856.005,521.174c-0.943-1.082-1.592-3.896-1.592-7.646
		c-3.201,5.922-10.758,8.931-18.188,8.931c-9.661,0-18.348-6.096-18.348-16.323c0-11.82,8.376-16.26,22.852-17.938
		c10.839-1.296,13.617-2.91,13.617-6.197c0-4.125-3.011-6.758-9.611-6.758c-5.066,0-9.555,2.661-11.274,8.163l-13.468-2.03
		c2.43-10.398,12.095-16.546,25.122-16.546c16.603,0,23.78,7.336,23.78,17.806v27.48c0,5.734,0.104,8.818,1.456,11.058H856.005z
		 M854.347,494.051c-1.769,1.47-6.643,2.223-11.943,2.987c-5.318,0.8-9.695,3.321-9.695,8.402c0,4.468,3.097,6.989,7.975,6.989
		c5.859,0,13.663-3.544,13.663-12.669L854.347,494.051z"/>
	<path clip-path="url(#SVGID_2_)" fill="#9AC31E" d="M894.248,474.548h0.415c2.924-5.675,8.462-9.72,16.554-9.72
		c1.372,0,2.842,0.172,3.864,0.447v13.62c-1.347-0.172-3.585-0.415-5.738-0.415c-8.284,0-14.466,3.642-14.466,14.896v27.798h-14.549
		v-55.062h13.92V474.548z"/>
	<path clip-path="url(#SVGID_2_)" fill="#9AC31E" d="M974.771,504.829c-2.166,7.793-9.481,17.63-26.914,17.63
		c-16.923,0-27.579-11.216-27.579-28.711c0-17.667,10.351-28.918,27.513-28.918c17.261,0,28.822,11.318,27.439,31.927h-40.116
		c0.203,9.112,5.087,15.393,12.744,15.393c7.965,0,11.02-4.935,12.079-8.526L974.771,504.829z M947.79,474.956
		c-7.725,0-11.967,5.62-12.507,12.413h25.109C959.854,480.576,955.612,474.956,947.79,474.956L947.79,474.956z"/>
	<path clip-path="url(#SVGID_2_)" fill="#676670" d="M251.63,287.53c11.916-68.715-83.736-63.658-100.431-62.26
		c-1.363,0.111-2.06,1.261-1.533,2.519C156.026,242.996,194.644,327.566,251.63,287.53"/>
	<path clip-path="url(#SVGID_2_)" fill="#EB5C26" d="M296.151,286.824c4.029-2.81,4.287-5.085,0.149-7.73l-8.433-5.393
		c-2.987-1.909-5.35-1.905-8.041,0.409c-16.172,13.93-23.288,28.931-26.066,48.03c5.071,2.146,11.271,2.488,16.715,1.032
		C274.595,309.673,282.032,296.663,296.151,286.824"/>
	<path clip-path="url(#SVGID_2_)" fill="#9AC31E" d="M385.172,436.542c30.639-86.762-43.481-143.502-112.553-101.856
		c-5.841,3.523-14.606,3.523-20.447,0C183.1,293.041,108.976,349.78,139.615,436.542c16.833,47.658,54.161,125.895,118.401,94.522
		c2.45-1.194,6.304-1.194,8.755,0C331.011,562.437,368.335,484.201,385.172,436.542"/>
</g>
</svg>
